<svg width="312" height="157" viewBox="0 0 312 157" fill="none" xmlns="http://www.w3.org/2000/svg">
<path d="M95 70.5C95 96.7336 73.7335 118 47.5 118C21.2665 118 0 96.7336 0 70.5C0 44.2665 21.2665 23 47.5 23C73.7335 23 95 44.2665 95 70.5Z" fill="white"/>
<path d="M194.698 70.5C194.698 109.436 163.134 128.141 124.198 128.141C85.2619 128.141 53.698 109.436 53.698 70.5C53.698 31.5639 85.2619 0 124.198 0C163.134 0 194.698 31.5639 194.698 70.5Z" fill="white"/>
<path d="M270.611 70.5C270.611 104.742 242.853 132.5 208.611 132.5C174.369 132.5 146.611 104.742 146.611 70.5C146.611 36.2584 174.369 8.50004 208.611 8.50004C242.853 8.50004 270.611 36.2584 270.611 70.5Z" fill="white"/>
<path d="M137 94C137 122.443 113.943 145.5 85.5 145.5C57.0573 145.5 34 122.443 34 94C34 65.5573 57.0573 42.5 85.5 42.5C113.943 42.5 137 65.5573 137 94Z" fill="white"/>
<path d="M200.5 106C200.5 131.681 179.681 152.5 154 152.5C128.319 152.5 107.5 131.681 107.5 106C107.5 80.3188 128.319 59.5 154 59.5C179.681 59.5 200.5 80.3188 200.5 106Z" fill="white"/>
<path d="M312 81C312 109.443 288.943 132.5 260.5 132.5C232.057 132.5 209 109.443 209 81C209 52.5574 232.057 29.5 260.5 29.5C288.943 29.5 312 52.5574 312 81Z" fill="white"/>
<path d="M260.5 104.447C260.5 133.442 236.995 156.947 208 156.947C179.005 156.947 155.5 133.442 155.5 104.447C155.5 75.4521 179.005 51.9471 208 51.9471C236.995 51.9471 260.5 75.4521 260.5 104.447Z" fill="white"/>
</svg>
